:SAMPLES-PER-SECOND 25
:FULLY-SPECIFIED
:DEGREES
369
root  15.6607 39.7928 -98.611 0.146973 6.69888 -4.31116
RightUpLeg  -13.5048 -0.414797 -2.13935
RightLeg  9.6395 -0.812422 -1.91108
RightFoot  0.588764 -0.574489 5.53541
RightToes  2.84633e-005 7.89722e-005 -0.000426369
Spine  1.64884 -0.660828 2.2319
Spine1  3.27352 -1.39632 3.49276
HEad  16.4552 -6.67556 -0.487618
LeftShoulder1  -3.88251e-019 0 -3.92111e-022
LeftArm  -32.0395 -0.850755 -77.5833
LeftForeArm  39.0073 1.98611 -0.428154
LeftHand  -0.888076 -4.14996 11.0639
RightShoulder  7.45443e-017 -2.42657e-020 1.96277e-018
RightArm  -25.9534 -9.14334 70.6419
RightForeArm  37.9985 -1.57853 2.15963
RightHand  -1.06755 9.16734 -8.6363
LeftUpLeg  -8.12542 4.234 2.12714
LeftLeg  15.7495 18.091 5.77514
LeftFoot  -9.0386 0.0720267 -0.894143
LeftToes  3.91355e-005 3.11907e-005 -4.10385e-006
370
root  15.6064 39.8792 -98.6938 -0.382324 3.45314 -4.38767
RightUpLeg  -10.7081 -1.97629 -3.79814
RightLeg  8.78073 0.447755 -1.59422
RightFoot  0.723833 -0.492912 4.70816
RightToes  2.84633e-005 7.89722e-005 -0.000426369
Spine  1.74496 -0.843468 2.36792
Spine1  3.46066 -1.75025 3.80344
HEad  17.3985 -6.12482 -1.10902
LeftShoulder1  -3.88251e-019 0 -3.92111e-022
LeftArm  -31.5322 -1.0966 -78.5118
LeftForeArm  37.0689 2.07354 -0.749169
LeftHand  -0.911875 -4.08503 11.4245
RightShoulder  7.45443e-017 -2.42657e-020 1.96277e-018
RightArm  -27.6279 -10.9137 68.687
RightForeArm  36.4666 -2.16336 0.244099
RightHand  -1.71586 9.81441 -13.2144
LeftUpLeg  -6.64441 4.61849 2.50484
LeftLeg  14.7477 20.8196 6.00899
LeftFoot  -8.37577 0.0689125 -0.712596
LeftToes  3.91355e-005 3.11907e-005 -4.10385e-006
371
root  15.4502 39.9671 -98.7427 -0.581604 1.00039 -4.61916
RightUpLeg  -8.08688 -3.57298 -5.18792
RightLeg  7.1285 0.182211 -1.13815
RightFoot  0.710004 -0.558788 5.335
RightToes  2.84633e-005 7.89722e-005 -0.000426369
Spine  1.77469 -1.00751 2.81136
Spine1  3.50887 -2.08146 4.57431
HEad  18.2427 -5.96158 -2.20531
LeftShoulder1  -3.88251e-019 0 -3.92111e-022
LeftArm  -31.3129 -1.955 -79.7058
LeftForeArm  38.3137 2.12145 -1.25666
LeftHand  -0.8874 -3.97955 11.2455
RightShoulder  7.45443e-017 -2.42657e-020 1.96277e-018
RightArm  -28.4346 -12.9139 66.3756
RightForeArm  33.7293 -2.08141 -0.580731
RightHand  -1.57088 9.57835 -12.5001
LeftUpLeg  -5.77828 5.1856 3.21442
LeftLeg  14.0826 22.5944 6.04065
LeftFoot  -7.84547 0.0621236 -0.490706
LeftToes  3.91355e-005 3.11907e-005 -4.10385e-006
372
root  15.1729 39.9931 -98.7742 -0.874756 -1.5277 -4.49927
RightUpLeg  -5.90451 -4.24197 -6.15982
RightLeg  5.72497 -1.6413 -1.39045
RightFoot  0.798614 -0.617968 5.8561
RightToes  2.84633e-005 7.89722e-005 -0.000426369
Spine  1.90391 -1.08191 2.91608
Spine1  3.76431 -2.22074 4.62836
HEad  18.9774 -5.15887 -2.59306
LeftShoulder1  -3.88251e-019 0 -3.92111e-022
LeftArm  -30.834 -2.89123 -80.5612
LeftForeArm  40.2158 2.11441 -1.71265
LeftHand  -0.870483 -3.98299 11.0336
RightShoulder  7.45443e-017 -2.42657e-020 1.96277e-018
RightArm  -28.7397 -14.9874 64.5754
RightForeArm  31.7387 -1.91988 -0.224216
RightHand  -1.23285 9.17724 -10.1346
LeftUpLeg  -5.07521 5.39564 3.64518
LeftLeg  14.3111 24.5135 6.65393
LeftFoot  -7.69574 0.0722814 -0.818824
LeftToes  3.91355e-005 3.11907e-005 -4.10385e-006
